<?xml version="1.0" encoding="UTF-8"?><svg id="Layer_1" xmlns="http://www.w3.org/2000/svg" viewBox="0 0 288.63 324.61"><defs><style>.cls-1{fill:#000; }</style></defs><path d="M219.77,108.69c.7-.44,1.9-.14,2.76-.21l-1.99-1.49c7.53-7.58,13.13-18.5,17.85-28.15,4.52-9.25,7.79-20.86,12.62-29.38,11.01-19.48,33.49-18.36,31.51,7.52-1.93,25.24-30.91,58.2-38.5,82.49-8.09,25.88-6.38,49.32-7.48,75.58-.57,13.59-7,32.35,1.48,43.46,6.65,8.7,21.55,21.9,30,30,7.25,6.96,20.93,13.99,20.61,25.48-.24,8.96-8.36,9.09-15.54,9.54-16.85,1.07-70.41,2.28-84.55-1.55-13.05-3.53-22.35-14.32-33-19-6.03-2.65-14.11-3.27-20.54-5.46-14.57-4.95-27.2-14.52-40.34-22.18l.89-1.85c-.38-.29-1.92.79-3.03.4-3.81-1.31-14.73-10.15-19.95-12.93-19.93-10.63-51.57-17.81-67.51-33.49-11.13-10.94-2.39-25.41,11.98-26.99,26.91-2.95,43.13,13.99,63.59,25.42,7.19,4.02,10.63,3.1,17.24-1.59,11-7.79,14.83-21.36,15.11-34.33.66-30.86-17.05-55.06-27.18-83.25-3.26-9.06-5.15-18.54-8.49-27.51-4.68-12.58-21.53-35.58-3.47-44.93,9.76-5.05,17.19,1.25,21.87,9.52,14.37,25.38,23.67,59.81,38.45,86.55,2.53,4.58,7.56,14.05,12.92,15.07,4.57.87,8.52.21,10.66-4.24,4.76-9.84-.87-37.98-1.25-50.17-.54-17.14,2.86-33.61,2.08-51.08-.53-11.89-7.25-29.81,5.61-37.31,16.58-9.67,24.48,9.36,26.22,22.48,1.96,14.73,3.55,34.94,4.17,49.83.7,16.9-2.38,34.6-1.08,51.08.43,5.44,3.31,23.03,11.02,14.94,5.27-5.53,12.58-30.59,15.26-32.28ZM177.03,6.49v1c.65-.33.65-.67,0-1ZM170.03,14.49v1c.65-.33.65-.67,0-1ZM167.53,17.5h-1.99v.98h1.99v-.98ZM175.52,22.49v-1.99h-.98v1.99h.98ZM183.03,21.49v1c.65-.33.65-.67,0-1ZM159.03,22.49v1c.65-.33.65-.67,0-1ZM170.03,23.49v1c.65-.33.65-.67,0-1ZM160.52,29.49v-1.99h-.98v1.99h.98ZM177.03,31.49v1c.65-.33.65-.67,0-1ZM184.52,33.49v-1.99h-.98v1.99h.98ZM180.03,33.49v1c.65-.33.65-.67,0-1ZM160.03,37.49v1c.65-.33.65-.67,0-1ZM167.53,40.5h-1.99s0,1.99,0,1.99l1.99-1.99ZM276.03,45.49v1c.65-.33.65-.67,0-1ZM186.52,50.49v-1.99h-.98v1.99h.98ZM176.03,49.49v1c.65-.33.65-.67,0-1ZM262.52,51.49v-1.99h-.98v1.99h.98ZM253.03,50.49v1c.65-.33.65-.67,0-1ZM178.03,51.49v1c.65-.33.65-.67,0-1ZM185.03,53.49v1c.65-.33.65-.67,0-1ZM251.52,57.49v-1.99h-.98v1.99h.98ZM81.53,56.5h-1.99v.98h1.99v-.98ZM185.52,58.49v-1.99h-.98v1.99h.98ZM262.03,57.49v1c.65-.33.65-.67,0-1ZM268.53,57.5h-1.99v.98h1.99v-.98ZM280.03,59.49v1c.65-.33.65-.67,0-1ZM166.52,62.49v-1.99h-.98v1.99h.98ZM190.03,61.49v1c.65-.33.65-.67,0-1ZM264.03,67.49v1c.65-.33.65-.67,0-1ZM94.03,70.49v1c.65-.33.65-.67,0-1ZM251.53,70.5h-1.99v.98h1.99v-.98ZM266.03,70.49v1c.65-.33.65-.67,0-1ZM271.53,71.5h-1.99v.98h1.99v-.98ZM160.03,73.49v1c.65-.33.65-.67,0-1ZM265.03,73.49v1c.65-.33.65-.67,0-1ZM165.03,77.49v1c.65-.33.65-.67,0-1ZM172.03,77.49v1c.65-.33.65-.67,0-1ZM256.53,85.5h-1.99v.98h1.99v-.98ZM258.03,85.49v1c.65-.33.65-.67,0-1ZM159.53,87.5h-1.99v.98h1.99v-.98ZM241.52,89.49v-1.99h-.98v1.99h.98ZM264.03,87.49v1c.65-.33.65-.67,0-1ZM261.03,90.49v1c.65-.33.65-.67,0-1ZM169.03,93.49v1c.65-.33.65-.67,0-1ZM259.03,93.49v1c.65-.33.65-.67,0-1ZM103.03,94.49v1c.65-.33.65-.67,0-1ZM115.52,98.49v-1.99h-.98v1.99h.98ZM232.03,102.49v1c.65-.33.65-.67,0-1ZM238.03,105.49v1c.65-.33.65-.67,0-1ZM112.03,108.49v1c.65-.33.65-.67,0-1ZM105.03,110.49v1c.65-.33.65-.67,0-1ZM113.03,115.49v1c.65-.33.65-.67,0-1ZM169.03,119.49v1c.65-.33.65-.67,0-1ZM117.53,124.5h-1.99v.98h1.99v-.98ZM119.03,133.49v1c.65-.33.65-.67,0-1ZM101.53,134.5h-1.99v.98h1.99v-.98ZM129.03,135.49v1c.65-.33.65-.67,0-1ZM176.03,136.49v1c.65-.33.65-.67,0-1ZM102.03,137.49v1c.65-.33.65-.67,0-1ZM109.03,137.49v1c.65-.33.65-.67,0-1ZM220.03,138.49v1c.65-.33.65-.67,0-1ZM107.03,139.49v1c.65-.33.65-.67,0-1ZM138.03,139.49v1c.65-.33.65-.67,0-1ZM216.03,140.49v1c.65-.33.65-.67,0-1ZM124.53,142.5h-1.99v1.99h1.99v-1.99ZM135.03,142.49v1c.65-.33.65-.67,0-1ZM131.03,143.49v1c.65-.33.65-.67,0-1ZM174.53,146.5h-1.99v.98h1.99v-.98ZM144.53,148.5h-1.99v.98h1.99v-.98ZM114.03,150.49v1c.65-.33.65-.67,0-1ZM112.03,151.49v1c.65-.33.65-.67,0-1ZM119.03,151.49v1c.65-.33.65-.67,0-1ZM134.52,154.49v-1.99h-.98v1.99h.98ZM171.03,152.49v1c.65-.33.65-.67,0-1ZM161.03,153.49v1c.65-.33.65-.67,0-1ZM175.03,153.49v1c.65-.33.65-.67,0-1ZM114.53,154.5h-1.99v.98h1.99v-.98ZM117.03,155.49v1c.65-.33.65-.67,0-1ZM136.53,174.51c7.42-3.16,16.67-9.7,13.51-19.01-6.73,1.95-8.93,8.49-13,13-3.13,3.46-10.1,7.23-11.5,10.51s3.96-1.26,2.97,1.96c-1.32,4.29-6.99,10.88-9.02,15.99-1.36,3.42-4.67,13.7-1.84,16.39,20.46,3.88,27.44-24.77,18.87-38.84ZM160.03,156.49v1c.65-.33.65-.67,0-1ZM190.53,156.5c-1.78-.37-2.43.95-3.51,1.98-5.39,5.08-7.62,16.03-12.01,21.99-2.09,2.84-.81-1.51-2.46-.96,1.71,3.72-.81,6.48-2.01,9.98,3.71.42,6.09-3.17,6.93-6.37l2.05-.61c3.94,9.65,15.21,9.6,24.01,10.99.15-7.1-8.78-4.17-13.72-5.77-3.65-1.18-7.63-5.17-7.27-9.22,8.11-1.58,16.77-5.04,21-12.51-8.21-1.19-11.71,11.07-20.99,8.5l7.99-17.99ZM110.03,157.49v1c.65-.33.65-.67,0-1ZM137.03,158.49v1c.65-.33.65-.67,0-1ZM141.53,158.5h-1.99s1.5,1.99,1.5,1.99l.49-1.99ZM179.52,160.49v-1.99h-.98v1.99h.98ZM214.03,159.49v1c.65-.33.65-.67,0-1ZM126.03,160.49v1c.65-.33.65-.67,0-1ZM168.52,162.49v-1.99h-.98v1.99h.98ZM212.03,163.49v1c.65-.33.65-.67,0-1ZM123.53,164.5h-1.99s0,1.99,0,1.99l1.99-1.99ZM132.53,165.5h-1.99v.98h1.99v-.98ZM169.53,189.51c-.49-.55-3.92-.41-3.97-3.49,18.04-29.6-21.87-20.27-19.03-3.08,1.33,8.06,11.48,2.73,14.37,3.65,1.14.36,2.46,4.23,7.17,4.9,1.86.27,2.15-1.21,1.47-1.98ZM115.03,167.49v1c.65-.33.65-.67,0-1ZM131.53,169.5h-1.99v.98h1.99v-.98ZM210.52,172.49v-1.99h-.98v1.99h.98ZM230.53,192.49h-17.5c-.75,0-4.61-2.86-3.5-3.99,7.38-1.19,17.94-6.32,12.48-14.99-9-7.07-20.85,11.46-16.38,18.38,3.36,5.2,17.11,3.97,22.46,2.62,1.68-.43,2.91,1.01,2.43-2.02ZM224.03,172.49v1c.65-.33.65-.67,0-1ZM176.53,174.5h-1.99v.98h1.99v-.98ZM143.03,176.49v1c.65-.33.65-.67,0-1ZM191.53,178.5h-1.99v.98h1.99v-.98ZM188.53,182.5h-1.99v.98h1.99v-.98ZM118.53,183.5h-1.99s0,1.99,0,1.99l1.99-1.99ZM121.03,185.49v1c.65-.33.65-.67,0-1ZM178.03,185.49v1c.65-.33.65-.67,0-1ZM190.03,185.49v1c.65-.33.65-.67,0-1ZM147.53,186.5h-1.99v.98h1.99v-.98ZM116.03,188.49v1c.65-.33.65-.67,0-1ZM118.53,190.5h-1.99v1.99h1.99v-1.99ZM165.53,192.5h-1.99v1.99h1.99v-1.99ZM144.52,197.49v-1.99h-.98v1.99h.98ZM141.53,215.51c4.06-1.68,10.06-5.4,12.45-9.07,1.2-1.84,4.83-10.21.2-9.83-4.3,2.05-7.72,6.01-9.6,10.31l-3.05-.42,1.99,1.49-11.99,11.02,1.91,2.84c-5.1,10.17-13.05,19.26-10.8,31.54,20.02,6.59,28.22-24.63,18.89-37.88ZM159.53,198.48l-1.99-1.99v1.99s1.99,0,1.99,0ZM198.03,196.49v1c.65-.33.65-.67,0-1ZM204.52,198.49v-1.99h-.98v1.99h.98ZM180.03,197.49v1c.65-.33.65-.67,0-1ZM172.03,198.49v1c.65-.33.65-.67,0-1ZM197.53,199.5h-1.99v.98h1.99v-.98ZM206.52,201.49v-1.99h-.98v1.99h.98ZM166.53,201.5h-1.99v1.99h1.99v-1.99ZM166.03,204.49v1c.65-.33.65-.67,0-1ZM157.03,205.49v1c.65-.33.65-.67,0-1ZM188.03,205.49v1c.65-.33.65-.67,0-1ZM177.03,206.49v1c.65-.33.65-.67,0-1ZM114.52,211.49v-1.99h-.98v1.99h.98ZM171.54,218.49c3.9-9.94-17.31-10.67-18.76-3.31-3.2,16.2,9.99,14.12,18.75,6.31-2.7,17.76,11.65,3.69,13,5-1.15,3.62,6.24,8.4,8,4.49,1.2-2.66-3.89-.68-4-2l4-14.49c-6.47,3.7-10.18,10.81-17.5,12.97-2.03-1.42-1-1.41-.76-2.71.34-1.81,3.86-10.65,3.26-11.26l-5.99,4.99ZM218.54,232.49c.13-2.69,2.59-3.65,2.98-6.58.83-6.32-7.44-15.85-13.98-15.42.26,3.56-.34,7.24-2.15,10.36-2.91,4.99-10.29,6.87-11.85,12.64,9.54-.99,15.09-9.27,17.01-17.99.43-.34,6.75,5.68,7.02,7.55.71,4.92-4.97,6.95-3.59,11.46,1.77,2.85,12.99,3.24,14.56-1l-10-1.02ZM120.52,218.49v-1.99h-.98v1.99h.98ZM147.03,218.49v1c.65-.33.65-.67,0-1ZM201.03,219.49v1c.65-.33.65-.67,0-1ZM112.53,220.5h-1.99v.98h1.99v-.98ZM181.03,221.49v1c.65-.33.65-.67,0-1ZM22.52,224.49v-1.99h-.98v1.99h.98ZM41.03,224.49v1c.65-.33.65-.67,0-1ZM108.03,224.49v1c.65-.33.65-.67,0-1ZM104.03,227.49v1c.65-.33.65-.67,0-1ZM100.03,229.49v1c.65-.33.65-.67,0-1ZM153.53,229.5h-1.99v.98h1.99v-.98ZM74.03,230.49v1c.65-.33.65-.67,0-1ZM162.03,230.49v1c.65-.33.65-.67,0-1ZM177.53,231.5h-1.99v.98h1.99v-.98ZM101.03,233.49v1c.65-.33.65-.67,0-1ZM110.52,236.49v-1.99h-.98v1.99h.98ZM160.03,235.49v1c.65-.33.65-.67,0-1ZM115.53,238.49v-1.99s-1.99,1.5-1.99,1.5l1.99.49ZM146.03,236.49v1c.65-.33.65-.67,0-1ZM160.54,241.49h1.48s2.51-2.51,2.51-2.51l-1.51-2.48-2.36,1.61-.11,3.38ZM108.03,237.49v1c.65-.33.65-.67,0-1ZM112.03,238.49v1c.65-.33.65-.67,0-1ZM100.03,239.49v1c.65-.33.65-.67,0-1ZM79.03,241.49v1c.65-.33.65-.67,0-1ZM110.52,243.49v-1.99h-.98v1.99h.98ZM215.03,241.49v1c.65-.33.65-.67,0-1ZM147.03,242.49v1c.65-.33.65-.67,0-1ZM163.03,242.49v1c.65-.33.65-.67,0-1ZM202.53,242.5l-1.99.49,1.99,1.5v-1.99ZM105.03,243.49v1c.65-.33.65-.67,0-1ZM196.03,243.49v1c.65-.33.65-.67,0-1ZM173.52,246.49v-1.99h-.98v1.99h.98ZM144.53,248.48l-1.99-1.99v1.99s1.99,0,1.99,0ZM76.03,247.49v1c.65-.33.65-.67,0-1ZM115.52,249.49v-1.99h-.98v1.99h.98ZM177.54,258.49c.29-3.77,1.35-5.05-1.46-8.04-6.06-6.42-14.53-.7-12.54,1.04,13.68-3.61,11.98,3.85,9,14,7.79-.35,11.12-8.6,17.99-10.99,1.03,7.26,1.86,15.09,10.99,14.51-1.21-3.57-2.95-1.93-5.55-3.44-.88-3.01-.81-12.94-4.11-13.97-4.61-1.44-13.09,8.34-14.32,6.89ZM218.54,259.49c2.41,2.42,8.88-7.21,1.99-10.49-9.35-4.45-21.59,6.94-18.55,16.54,2.62,8.26,18.69,4.71,25.08,5.88l.99-1.93c-4.94-5.77-17.77,1.32-21.99-4.02-5.17-6.55,7.57-17.14,12.52-12.48l-.04,6.49ZM159.53,248.5c-2.64-2.55-12.83,12.07-11.99,12.99,3.29-1.69,4.46,1.5,8.46,2.02,1.57.21,9.59.42,9.51-1.52l-4-3.49v2.98c-13.13,1.75-.61-11.66-1.99-12.99ZM94.53,251.49v-1.99s-1.99,1.5-1.99,1.5l1.99.49ZM110.03,250.49v1c.65-.33.65-.67,0-1ZM151.03,250.49v1c.65-.33.65-.67,0-1ZM201.03,250.49v1c.65-.33.65-.67,0-1ZM162.03,251.49v1c.65-.33.65-.67,0-1ZM117.03,255.49v1c.65-.33.65-.67,0-1ZM210.03,255.49v1c.65-.33.65-.67,0-1ZM201.03,256.49v1c.65-.33.65-.67,0-1ZM229.03,257.49v1c.65-.33.65-.67,0-1ZM111.03,259.49v1c.65-.33.65-.67,0-1ZM214.03,259.49v1c.65-.33.65-.67,0-1ZM126.53,260.5h-1.99v.98h1.99v-.98ZM134.03,260.49v1c.65-.33.65-.67,0-1ZM131.03,262.49v1c.65-.33.65-.67,0-1ZM96.52,266.49v-1.99h-.98v1.99h.98ZM96.03,267.49v1c.65-.33.65-.67,0-1ZM88.03,268.49v1c.65-.33.65-.67,0-1ZM193.03,268.49v1c.65-.33.65-.67,0-1ZM233.53,269.5c-5-.38-5,3.37,0,2.99v-2.99ZM91.03,270.49v1c.65-.33.65-.67,0-1ZM178.53,270.5h-1.99v.98h1.99v-.98ZM125.53,271.5h-1.99v.98h1.99v-.98ZM132.53,271.5h-1.99v.98h1.99v-.98ZM114.03,273.49v1c.65-.33.65-.67,0-1ZM111.52,276.49v-1.99h-.98v1.99h.98ZM157.03,274.49v1c.65-.33.65-.67,0-1ZM216.53,274.5h-1.99v1.99h1.99v-1.99ZM179.03,275.49v1c.65-.33.65-.67,0-1ZM225.52,277.49v-1.99h-.98v1.99h.98ZM124.52,278.49v-1.99h-.98v1.99h.98ZM221.53,276.5h-1.99v.98h1.99v-.98ZM165.03,277.49v1c.65-.33.65-.67,0-1ZM196.52,279.49v-1.99h-.98v1.99h.98ZM110.52,281.49v-1.99h-.98v1.99h.98ZM184.52,281.49v-1.99h-.98v1.99h.98ZM232.03,279.49v1c.65-.33.65-.67,0-1ZM162.53,280.5h-1.99v.98h1.99v-.98ZM217.03,281.49v1c.65-.33.65-.67,0-1ZM198.52,284.49v-1.99h-.98v1.99h.98ZM202.03,282.49v1c.65-.33.65-.67,0-1ZM120.03,283.49v1c.65-.33.65-.67,0-1ZM203.03,284.49v1c.65-.33.65-.67,0-1ZM219.53,284.5h-1.99v.98h1.99v-.98ZM136.03,285.49v1c.65-.33.65-.67,0-1ZM145.03,285.49v1c.65-.33.65-.67,0-1ZM196.52,288.49v-1.99h-.98v1.99h.98ZM167.52,289.49v-1.99h-.98v1.99h.98ZM184.53,290.49v-1.99s-1.99,1.5-1.99,1.5l1.99.49ZM122.03,289.49v1c.65-.33.65-.67,0-1ZM249.03,290.49v1c.65-.33.65-.67,0-1ZM159.53,294.48l-1.99-1.99v1.99s1.99,0,1.99,0ZM239.03,292.49v1c.65-.33.65-.67,0-1ZM137.03,293.49v1c.65-.33.65-.67,0-1ZM195.03,293.49v1c.65-.33.65-.67,0-1ZM267.03,293.49v1c.65-.33.65-.67,0-1ZM133.03,294.49v1c.65-.33.65-.67,0-1ZM187.52,296.49v-1.99h-.98v1.99h.98ZM177.53,295.5h-1.99v.98h1.99v-.98ZM219.03,296.49v1c.65-.33.65-.67,0-1ZM223.03,296.49v1c.65-.33.65-.67,0-1ZM241.03,296.49v1c.65-.33.65-.67,0-1ZM230.52,299.49v-1.99h-.98v1.99h.98ZM249.52,299.49v-1.99h-.98v1.99h.98ZM180.52,300.49v-1.99h-.98v1.99h.98ZM207.03,298.49v1c.65-.33.65-.67,0-1ZM162.03,302.49v1c.65-.33.65-.67,0-1ZM245.03,304.49v1c.65-.33.65-.67,0-1ZM204.53,305.5l-1.99.49,1.99,1.5v-1.99ZM261.53,305.5h-1.99v.98h1.99v-.98ZM193.53,306.5h-2.99v.98h2.99v-.98ZM214.52,308.49v-1.99h-.98v1.99h.98ZM186.03,307.49v1c.65-.33.65-.67,0-1ZM223.03,310.49v1c.65-.33.65-.67,0-1ZM184.53,311.5h-1.99v.98h1.99v-.98ZM210.03,312.49v1c.65-.33.65-.67,0-1ZM230.03,312.49v1c.65-.33.65-.67,0-1ZM222.03,314.49v1c.65-.33.65-.67,0-1ZM206.03,315.49v1c.65-.33.65-.67,0-1ZM224.03,316.49v1c.65-.33.65-.67,0-1ZM194.52,319.49v-1.99h-.98v1.99h.98ZM231.02,317.51c-.99.7.54,1.37,1.02,1.96.99-.66-.47-1.32-1.02-1.96ZM211.03,318.49v1c.65-.33.65-.67,0-1ZM198.03,319.49v1c.65-.33.65-.67,0-1ZM236.03,321.49v1c.65-.33.65-.67,0-1Z"/><path class="cls-1" d="M136.53,174.51c8.57,14.07,1.59,42.72-18.87,38.84-2.83-2.69.48-12.97,1.84-16.39,2.03-5.11,7.7-11.7,9.02-15.99.99-3.23-4.3,1.15-2.97-1.96,1.39-3.28,8.37-7.04,11.5-10.51,4.07-4.51,6.27-11.05,13-13,3.16,9.32-6.09,15.85-13.51,19.01ZM141.54,168.49c1.1,1.24,9.04-6.25,6.98-8.99-3.72,1.53-7.22,4.61-6.98,8.99ZM124.97,192.87c-1.69,3.68-7.13,13.43-3.03,16.72,11.84,5.71,18.38-21.84,14.09-28.1-2.29-3.35-8.24,5.07-9.21,6.89-.76,1.43-1.14,2.96-1.85,4.49Z"/><path class="cls-1" d="M141.53,215.51c9.33,13.24,1.13,44.47-18.89,37.88-2.25-12.28,5.71-21.37,10.8-31.54l-1.91-2.84,11.99-11.02-1.99-1.49,3.05.42c1.88-4.3,5.3-8.26,9.6-10.31,4.63-.38,1,7.99-.2,9.83-2.39,3.66-8.39,7.38-12.45,9.07ZM154.53,200.5c-4.55.27-7.29,4.92-7.99,8.99,3.08.94,9.09-7.89,7.99-8.99ZM141.53,221.49c-3.21-2.77-9.81,8.58-10.86,10.63-1.83,3.55-7.04,15.91-3.18,18.86.64.49,5.27.09,6.4-.57,6.86-3.94,10.43-21.7,7.64-28.92Z"/><path class="cls-1" d="M171.54,218.49l5.99-4.99c.6.6-2.93,9.44-3.26,11.26-.24,1.3-1.27,1.29.76,2.71,7.33-2.16,11.03-9.27,17.5-12.97l-4,14.49c.11,1.32,5.21-.67,4,2-1.76,3.91-9.15-.87-8-4.49-1.35-1.31-15.69,12.76-13-5-8.76,7.81-21.94,9.89-18.75-6.31,1.45-7.36,22.66-6.64,18.76,3.31ZM156.78,223.24c3.54,3.48,15.73-2.23,10.85-8.34-4.52-5.66-15.65,3.63-10.85,8.34Z"/><path class="cls-1" d="M190.53,156.5l-7.99,17.99c9.28,2.57,12.78-9.69,20.99-8.5-4.23,7.48-12.89,10.94-21,12.51-.36,4.05,3.62,8.05,7.27,9.22,4.95,1.59,13.87-1.33,13.72,5.77-8.8-1.39-20.07-1.34-24.01-10.99l-2.05.61c-.84,3.2-3.22,6.79-6.93,6.37,1.2-3.5,3.72-6.27,2.01-9.98,1.66-.55.37,3.8,2.46.96,4.4-5.96,6.63-16.9,12.01-21.99,1.09-1.03,1.73-2.35,3.51-1.98Z"/><path class="cls-1" d="M169.53,189.51c.69.77.39,2.24-1.47,1.98-4.71-.67-6.03-4.54-7.17-4.9-2.89-.92-13.04,4.41-14.37-3.65-2.84-17.19,37.07-26.51,19.03,3.08.05,3.08,3.48,2.94,3.97,3.49ZM158.24,170.71c-4.3,1-8.12,6.87-8.51,11.15l1.81,2.14c7.73,2.64,10.51-6.71,15.99-10.03-.73-4.18-6.01-4.03-9.29-3.26Z"/><path class="cls-1" d="M218.54,232.49l10,1.02c-1.56,4.24-12.79,3.85-14.56,1-1.38-4.51,4.3-6.54,3.59-11.46-.27-1.87-6.59-7.89-7.02-7.55-1.92,8.72-7.47,17-17.01,17.99,1.55-5.77,8.94-7.66,11.85-12.64,1.82-3.12,2.41-6.79,2.15-10.36,6.54-.43,14.81,9.1,13.98,15.42-.38,2.93-2.85,3.89-2.98,6.58Z"/><path class="cls-1" d="M230.53,192.49c.48,3.03-.75,1.6-2.43,2.02-5.35,1.35-19.1,2.58-22.46-2.62-4.47-6.92,7.39-25.46,16.38-18.38,5.46,8.68-5.11,13.8-12.48,14.99-1.11,1.13,2.75,3.99,3.5,3.99h17.5ZM208.54,185.49c3.64-.33,15-3.89,11.54-9.04-1.33-1.98-3.79-.1-5.55.05l1,2.99c-1.79.49-.43-2.27-1.49-1.99-2.71.73-5.29,5.15-5.5,7.99Z"/><path class="cls-1" d="M218.54,259.49l.04-6.49c-4.95-4.66-17.69,5.93-12.52,12.48,4.22,5.34,17.04-1.75,21.99,4.02l-.99,1.93c-6.39-1.17-22.46,2.38-25.08-5.88-3.04-9.6,9.2-20.99,18.55-16.54,6.89,3.28.42,12.91-1.99,10.49Z"/><path class="cls-1" d="M159.53,248.5c1.37,1.33-11.14,14.73,2,12.99v-2.98s3.98,3.49,3.98,3.49c.08,1.94-7.94,1.73-9.51,1.52-4.01-.52-5.17-3.72-8.46-2.02-.85-.92,9.34-15.54,11.99-12.99Z"/><polygon class="cls-1" points="160.54 241.49 160.65 238.11 163.02 236.5 164.53 238.98 162.02 241.48 160.54 241.49"/><path class="cls-1" d="M233.53,269.5v2.99c-5,.38-5-3.37,0-2.99Z"/><rect class="cls-1" x="122.54" y="142.5" width="1.99" height="1.99"/><rect class="cls-1" x="163.54" y="192.5" width="1.99" height="1.99"/><rect class="cls-1" x="116.54" y="190.5" width="1.99" height="1.99"/><rect class="cls-1" x="164.54" y="201.5" width="1.99" height="1.99"/><rect class="cls-1" x="214.54" y="274.5" width="1.99" height="1.99"/><polygon class="cls-1" points="159.53 198.48 157.54 198.49 157.54 196.49 159.53 198.48"/><polygon class="cls-1" points="167.53 40.5 165.54 42.49 165.54 40.5 167.53 40.5"/><rect class="cls-1" x="190.54" y="306.5" width="2.99" height=".98"/><polygon class="cls-1" points="204.53 305.5 204.52 307.49 202.54 305.99 204.53 305.5"/><polygon class="cls-1" points="118.53 183.5 116.54 185.49 116.54 183.5 118.53 183.5"/><polygon class="cls-1" points="123.53 164.5 121.54 166.49 121.54 164.5 123.53 164.5"/><polygon class="cls-1" points="141.53 158.5 141.04 160.49 139.53 158.5 141.53 158.5"/><polygon class="cls-1" points="115.53 238.49 113.54 238 115.52 236.49 115.53 238.49"/><polygon class="cls-1" points="159.53 294.48 157.54 294.49 157.54 292.49 159.53 294.48"/><polygon class="cls-1" points="202.53 242.5 202.52 244.49 200.54 242.99 202.53 242.5"/><polygon class="cls-1" points="184.53 290.49 182.54 290 184.52 288.49 184.53 290.49"/><polygon class="cls-1" points="144.53 248.48 142.54 248.49 142.54 246.49 144.53 248.48"/><polygon class="cls-1" points="94.53 251.49 92.54 251 94.52 249.49 94.53 251.49"/><rect class="cls-1" x="157.54" y="87.5" width="1.99" height=".98"/><rect class="cls-1" x="240.54" y="87.5" width=".98" height="1.99"/><rect class="cls-1" x="183.54" y="279.5" width=".98" height="1.99"/><rect class="cls-1" x="109.54" y="279.5" width=".98" height="1.99"/><rect class="cls-1" x="195.54" y="277.5" width=".98" height="1.99"/><rect class="cls-1" x="219.54" y="276.5" width="1.99" height=".98"/><rect class="cls-1" x="123.54" y="276.5" width=".98" height="1.99"/><rect class="cls-1" x="114.54" y="96.5" width=".98" height="1.99"/><rect class="cls-1" x="224.54" y="275.5" width=".98" height="1.99"/><rect class="cls-1" x="160.54" y="280.5" width="1.99" height=".98"/><rect class="cls-1" x="110.54" y="274.5" width=".98" height="1.99"/><rect class="cls-1" x="130.54" y="271.5" width="1.99" height=".98"/><rect class="cls-1" x="123.54" y="271.5" width="1.99" height=".98"/><rect class="cls-1" x="176.54" y="270.5" width="1.99" height=".98"/><rect class="cls-1" x="115.54" y="124.5" width="1.99" height=".98"/><rect class="cls-1" x="254.54" y="85.5" width="1.99" height=".98"/><rect class="cls-1" x="99.54" y="134.5" width="1.99" height=".98"/><rect class="cls-1" x="197.54" y="282.5" width=".98" height="1.99"/><rect class="cls-1" x="95.54" y="264.5" width=".98" height="1.99"/><rect class="cls-1" x="217.54" y="284.5" width="1.99" height=".98"/><rect class="cls-1" x="124.54" y="260.5" width="1.99" height=".98"/><rect class="cls-1" x="195.54" y="286.5" width=".98" height="1.99"/><rect class="cls-1" x="165.54" y="17.5" width="1.99" height=".98"/><rect class="cls-1" x="166.54" y="287.5" width=".98" height="1.99"/><rect class="cls-1" x="193.54" y="317.5" width=".98" height="1.99"/><rect class="cls-1" x="114.54" y="247.5" width=".98" height="1.99"/><rect class="cls-1" x="269.54" y="71.5" width="1.99" height=".98"/><rect class="cls-1" x="172.54" y="146.5" width="1.99" height=".98"/><rect class="cls-1" x="142.54" y="148.5" width="1.99" height=".98"/><rect class="cls-1" x="172.54" y="244.5" width=".98" height="1.99"/><rect class="cls-1" x="249.54" y="70.5" width="1.99" height=".98"/><rect class="cls-1" x="109.54" y="241.5" width=".98" height="1.99"/><rect class="cls-1" x="133.54" y="152.5" width=".98" height="1.99"/><rect class="cls-1" x="186.54" y="294.5" width=".98" height="1.99"/><rect class="cls-1" x="175.54" y="295.5" width="1.99" height=".98"/><rect class="cls-1" x="109.54" y="234.5" width=".98" height="1.99"/><rect class="cls-1" x="112.54" y="154.5" width="1.99" height=".98"/><rect class="cls-1" x="175.54" y="231.5" width="1.99" height=".98"/><rect class="cls-1" x="151.54" y="229.5" width="1.99" height=".98"/><rect class="cls-1" x="21.54" y="222.5" width=".98" height="1.99"/><rect class="cls-1" x="174.54" y="20.5" width=".98" height="1.99"/><rect class="cls-1" x="165.54" y="60.5" width=".98" height="1.99"/><rect class="cls-1" x="178.54" y="158.5" width=".98" height="1.99"/><rect class="cls-1" x="229.54" y="297.5" width=".98" height="1.99"/><rect class="cls-1" x="110.54" y="220.5" width="1.99" height=".98"/><rect class="cls-1" x="119.54" y="216.5" width=".98" height="1.99"/><rect class="cls-1" x="167.54" y="160.5" width=".98" height="1.99"/><rect class="cls-1" x="266.54" y="57.5" width="1.99" height=".98"/><rect class="cls-1" x="130.54" y="165.5" width="1.99" height=".98"/><rect class="cls-1" x="159.54" y="27.5" width=".98" height="1.99"/><rect class="cls-1" x="248.54" y="297.5" width=".98" height="1.99"/><rect class="cls-1" x="183.54" y="31.5" width=".98" height="1.99"/><rect class="cls-1" x="129.54" y="169.5" width="1.99" height=".98"/><rect class="cls-1" x="184.54" y="56.5" width=".98" height="1.99"/><rect class="cls-1" x="209.54" y="170.5" width=".98" height="1.99"/><rect class="cls-1" x="79.54" y="56.5" width="1.99" height=".98"/><rect class="cls-1" x="113.54" y="209.5" width=".98" height="1.99"/><rect class="cls-1" x="174.54" y="174.5" width="1.99" height=".98"/><rect class="cls-1" x="250.54" y="55.5" width=".98" height="1.99"/><rect class="cls-1" x="189.54" y="178.5" width="1.99" height=".98"/><rect class="cls-1" x="186.54" y="182.5" width="1.99" height=".98"/><rect class="cls-1" x="179.54" y="298.5" width=".98" height="1.99"/><rect class="cls-1" x="259.54" y="305.5" width="1.99" height=".98"/><rect class="cls-1" x="261.54" y="49.5" width=".98" height="1.99"/><rect class="cls-1" x="205.54" y="199.5" width=".98" height="1.99"/><rect class="cls-1" x="145.54" y="186.5" width="1.99" height=".98"/><rect class="cls-1" x="195.54" y="199.5" width="1.99" height=".98"/><rect class="cls-1" x="185.54" y="48.5" width=".98" height="1.99"/><rect class="cls-1" x="213.54" y="306.5" width=".98" height="1.99"/><rect class="cls-1" x="143.54" y="195.5" width=".98" height="1.99"/><rect class="cls-1" x="182.54" y="311.5" width="1.99" height=".98"/><rect class="cls-1" x="203.54" y="196.5" width=".98" height="1.99"/><path class="cls-1" d="M198.03,196.49c.65.33.65.67,0,1v-1Z"/><path class="cls-1" d="M180.03,197.49c.65.33.65.67,0,1v-1Z"/><path class="cls-1" d="M172.03,198.49c.65.33.65.67,0,1v-1Z"/><path class="cls-1" d="M116.03,188.49c.65.33.65.67,0,1v-1Z"/><path class="cls-1" d="M190.03,185.49c.65.33.65.67,0,1v-1Z"/><path class="cls-1" d="M178.03,185.49c.65.33.65.67,0,1v-1Z"/><path class="cls-1" d="M121.03,185.49c.65.33.65.67,0,1v-1Z"/><path class="cls-1" d="M166.03,204.49c.65.33.65.67,0,1v-1Z"/><path class="cls-1" d="M157.03,205.49c.65.33.65.67,0,1v-1Z"/><path class="cls-1" d="M188.03,205.49c.65.33.65.67,0,1v-1Z"/><path class="cls-1" d="M159.03,22.49c.65.33.65.67,0,1v-1Z"/><path class="cls-1" d="M177.03,206.49c.65.33.65.67,0,1v-1Z"/><path class="cls-1" d="M143.03,176.49c.65.33.65.67,0,1v-1Z"/><path class="cls-1" d="M224.03,172.49c.65.33.65.67,0,1v-1Z"/><path class="cls-1" d="M115.03,167.49c.65.33.65.67,0,1v-1Z"/><path class="cls-1" d="M170.03,23.49c.65.33.65.67,0,1v-1Z"/><path class="cls-1" d="M212.03,163.49c.65.33.65.67,0,1v-1Z"/><path class="cls-1" d="M183.03,21.49c.65.33.65.67,0,1v-1Z"/><path class="cls-1" d="M126.03,160.49c.65.33.65.67,0,1v-1Z"/><path class="cls-1" d="M147.03,218.49c.65.33.65.67,0,1v-1Z"/><path class="cls-1" d="M201.03,219.49c.65.33.65.67,0,1v-1Z"/><path class="cls-1" d="M214.03,159.49c.65.33.65.67,0,1v-1Z"/><path class="cls-1" d="M137.03,158.49c.65.33.65.67,0,1v-1Z"/><path class="cls-1" d="M181.03,221.49c.65.33.65.67,0,1v-1Z"/><path class="cls-1" d="M110.03,157.49c.65.33.65.67,0,1v-1Z"/><path class="cls-1" d="M41.03,224.49c.65.33.65.67,0,1v-1Z"/><path class="cls-1" d="M108.03,224.49c.65.33.65.67,0,1v-1Z"/><path class="cls-1" d="M104.03,227.49c.65.33.65.67,0,1v-1Z"/><path class="cls-1" d="M160.03,156.49c.65.33.65.67,0,1v-1Z"/><path class="cls-1" d="M100.03,229.49c.65.33.65.67,0,1v-1Z"/><path class="cls-1" d="M177.03,31.49c.65.33.65.67,0,1v-1Z"/><path class="cls-1" d="M74.03,230.49c.65.33.65.67,0,1v-1Z"/><path class="cls-1" d="M162.03,230.49c.65.33.65.67,0,1v-1Z"/><path class="cls-1" d="M117.03,155.49c.65.33.65.67,0,1v-1Z"/><path class="cls-1" d="M101.03,233.49c.65.33.65.67,0,1v-1Z"/><path class="cls-1" d="M175.03,153.49c.65.33.65.67,0,1v-1Z"/><path class="cls-1" d="M160.03,235.49c.65.33.65.67,0,1v-1Z"/><path class="cls-1" d="M161.03,153.49c.65.33.65.67,0,1v-1Z"/><path class="cls-1" d="M146.03,236.49c.65.33.65.67,0,1v-1Z"/><path class="cls-1" d="M171.03,152.49c.65.33.65.67,0,1v-1Z"/><path class="cls-1" d="M108.03,237.49c.65.33.65.67,0,1v-1Z"/><path class="cls-1" d="M112.03,238.49c.65.33.65.67,0,1v-1Z"/><path class="cls-1" d="M100.03,239.49c.65.33.65.67,0,1v-1Z"/><path class="cls-1" d="M79.03,241.49c.65.33.65.67,0,1v-1Z"/><path class="cls-1" d="M119.03,151.49c.65.33.65.67,0,1v-1Z"/><path class="cls-1" d="M215.03,241.49c.65.33.65.67,0,1v-1Z"/><path class="cls-1" d="M147.03,242.49c.65.33.65.67,0,1v-1Z"/><path class="cls-1" d="M163.03,242.49c.65.33.65.67,0,1v-1Z"/><path class="cls-1" d="M112.03,151.49c.65.33.65.67,0,1v-1Z"/><path class="cls-1" d="M105.03,243.49c.65.33.65.67,0,1v-1Z"/><path class="cls-1" d="M196.03,243.49c.65.33.65.67,0,1v-1Z"/><path class="cls-1" d="M114.03,150.49c.65.33.65.67,0,1v-1Z"/><path class="cls-1" d="M131.03,143.49c.65.33.65.67,0,1v-1Z"/><path class="cls-1" d="M76.03,247.49c.65.33.65.67,0,1v-1Z"/><path class="cls-1" d="M135.03,142.49c.65.33.65.67,0,1v-1Z"/><path class="cls-1" d="M216.03,140.49c.65.33.65.67,0,1v-1Z"/><path class="cls-1" d="M110.03,250.49c.65.33.65.67,0,1v-1Z"/><path class="cls-1" d="M138.03,139.49c.65.33.65.67,0,1v-1Z"/><path class="cls-1" d="M151.03,250.49c.65.33.65.67,0,1v-1Z"/><path class="cls-1" d="M201.03,250.49c.65.33.65.67,0,1v-1Z"/><path class="cls-1" d="M162.03,251.49c.65.33.65.67,0,1v-1Z"/><path class="cls-1" d="M107.03,139.49c.65.33.65.67,0,1v-1Z"/><path class="cls-1" d="M117.03,255.49c.65.33.65.67,0,1v-1Z"/><path class="cls-1" d="M210.03,255.49c.65.33.65.67,0,1v-1Z"/><path class="cls-1" d="M201.03,256.49c.65.33.65.67,0,1v-1Z"/><path class="cls-1" d="M229.03,257.49c.65.33.65.67,0,1v-1Z"/><path class="cls-1" d="M220.03,138.49c.65.33.65.67,0,1v-1Z"/><path class="cls-1" d="M111.03,259.49c.65.33.65.67,0,1v-1Z"/><path class="cls-1" d="M214.03,259.49c.65.33.65.67,0,1v-1Z"/><path class="cls-1" d="M109.03,137.49c.65.33.65.67,0,1v-1Z"/><path class="cls-1" d="M134.03,260.49c.65.33.65.67,0,1v-1Z"/><path class="cls-1" d="M102.03,137.49c.65.33.65.67,0,1v-1Z"/><path class="cls-1" d="M131.03,262.49c.65.33.65.67,0,1v-1Z"/><path class="cls-1" d="M176.03,136.49c.65.33.65.67,0,1v-1Z"/><path class="cls-1" d="M129.03,135.49c.65.33.65.67,0,1v-1Z"/><path class="cls-1" d="M96.03,267.49c.65.33.65.67,0,1v-1Z"/><path class="cls-1" d="M88.03,268.49c.65.33.65.67,0,1v-1Z"/><path class="cls-1" d="M193.03,268.49c.65.33.65.67,0,1v-1Z"/><path class="cls-1" d="M177.54,258.49c1.23,1.45,9.71-8.33,14.32-6.89,3.3,1.03,3.22,10.96,4.11,13.97,2.6,1.51,4.34-.13,5.55,3.44-9.13.58-9.96-7.25-10.99-14.51-6.87,2.39-10.2,10.65-17.99,10.99,2.98-10.15,4.68-17.61-9-14-1.99-1.74,6.47-7.46,12.54-1.04,2.81,2.98,1.76,4.27,1.46,8.04Z"/><path class="cls-1" d="M119.03,133.49c.65.33.65.67,0,1v-1Z"/><path class="cls-1" d="M91.03,270.49c.65.33.65.67,0,1v-1Z"/><path class="cls-1" d="M169.03,119.49c.65.33.65.67,0,1v-1Z"/><path class="cls-1" d="M170.03,14.49c.65.33.65.67,0,1v-1Z"/><path class="cls-1" d="M113.03,115.49c.65.33.65.67,0,1v-1Z"/><path class="cls-1" d="M105.03,110.49c.65.33.65.67,0,1v-1Z"/><path class="cls-1" d="M177.03,6.49c.65.33.65.67,0,1v-1Z"/><path class="cls-1" d="M114.03,273.49c.65.33.65.67,0,1v-1Z"/><path class="cls-1" d="M112.03,108.49c.65.33.65.67,0,1v-1Z"/><path class="cls-1" d="M157.03,274.49c.65.33.65.67,0,1v-1Z"/><path class="cls-1" d="M238.03,105.49c.65.33.65.67,0,1v-1Z"/><path class="cls-1" d="M179.03,275.49c.65.33.65.67,0,1v-1Z"/><path class="cls-1" d="M232.03,102.49c.65.33.65.67,0,1v-1Z"/><path class="cls-1" d="M103.03,94.49c.65.33.65.67,0,1v-1Z"/><path class="cls-1" d="M259.03,93.49c.65.33.65.67,0,1v-1Z"/><path class="cls-1" d="M165.03,277.49c.65.33.65.67,0,1v-1Z"/><path class="cls-1" d="M169.03,93.49c.65.33.65.67,0,1v-1Z"/><path class="cls-1" d="M261.03,90.49c.65.33.65.67,0,1v-1Z"/><path class="cls-1" d="M264.03,87.49c.65.33.65.67,0,1v-1Z"/><path class="cls-1" d="M232.03,279.49c.65.33.65.67,0,1v-1Z"/><path class="cls-1" d="M258.03,85.49c.65.33.65.67,0,1v-1Z"/><path class="cls-1" d="M217.03,281.49c.65.33.65.67,0,1v-1Z"/><path class="cls-1" d="M172.03,77.49c.65.33.65.67,0,1v-1Z"/><path class="cls-1" d="M202.03,282.49c.65.33.65.67,0,1v-1Z"/><path class="cls-1" d="M120.03,283.49c.65.33.65.67,0,1v-1Z"/><path class="cls-1" d="M203.03,284.49c.65.33.65.67,0,1v-1Z"/><path class="cls-1" d="M165.03,77.49c.65.33.65.67,0,1v-1Z"/><path class="cls-1" d="M136.03,285.49c.65.33.65.67,0,1v-1Z"/><path class="cls-1" d="M145.03,285.49c.65.33.65.67,0,1v-1Z"/><path class="cls-1" d="M265.03,73.49c.65.33.65.67,0,1v-1Z"/><path class="cls-1" d="M160.03,73.49c.65.33.65.67,0,1v-1Z"/><path class="cls-1" d="M266.03,70.49c.65.33.65.67,0,1v-1Z"/><path class="cls-1" d="M122.03,289.49c.65.33.65.67,0,1v-1Z"/><path class="cls-1" d="M249.03,290.49c.65.33.65.67,0,1v-1Z"/><path class="cls-1" d="M94.03,70.49c.65.33.65.67,0,1v-1Z"/><path class="cls-1" d="M239.03,292.49c.65.33.65.67,0,1v-1Z"/><path class="cls-1" d="M137.03,293.49c.65.33.65.67,0,1v-1Z"/><path class="cls-1" d="M195.03,293.49c.65.33.65.67,0,1v-1Z"/><path class="cls-1" d="M267.03,293.49c.65.33.65.67,0,1v-1Z"/><path class="cls-1" d="M133.03,294.49c.65.33.65.67,0,1v-1Z"/><path class="cls-1" d="M264.03,67.49c.65.33.65.67,0,1v-1Z"/><path class="cls-1" d="M190.03,61.49c.65.33.65.67,0,1v-1Z"/><path class="cls-1" d="M219.03,296.49c.65.33.65.67,0,1v-1Z"/><path class="cls-1" d="M223.03,296.49c.65.33.65.67,0,1v-1Z"/><path class="cls-1" d="M241.03,296.49c.65.33.65.67,0,1v-1Z"/><path class="cls-1" d="M280.03,59.49c.65.33.65.67,0,1v-1Z"/><path class="cls-1" d="M262.03,57.49c.65.33.65.67,0,1v-1Z"/><path class="cls-1" d="M185.03,53.49c.65.33.65.67,0,1v-1Z"/><path class="cls-1" d="M207.03,298.49c.65.33.65.67,0,1v-1Z"/><path class="cls-1" d="M162.03,302.49c.65.33.65.67,0,1v-1Z"/><path class="cls-1" d="M245.03,304.49c.65.33.65.67,0,1v-1Z"/><path class="cls-1" d="M178.03,51.49c.65.33.65.67,0,1v-1Z"/><path class="cls-1" d="M253.03,50.49c.65.33.65.67,0,1v-1Z"/><path class="cls-1" d="M176.03,49.49c.65.33.65.67,0,1v-1Z"/><path class="cls-1" d="M276.03,45.49c.65.33.65.67,0,1v-1Z"/><path class="cls-1" d="M186.03,307.49c.65.33.65.67,0,1v-1Z"/><path class="cls-1" d="M223.03,310.49c.65.33.65.67,0,1v-1Z"/><path class="cls-1" d="M160.03,37.49c.65.33.65.67,0,1v-1Z"/><path class="cls-1" d="M210.03,312.49c.65.33.65.67,0,1v-1Z"/><path class="cls-1" d="M230.03,312.49c.65.33.65.67,0,1v-1Z"/><path class="cls-1" d="M222.03,314.49c.65.33.65.67,0,1v-1Z"/><path class="cls-1" d="M206.03,315.49c.65.33.65.67,0,1v-1Z"/><path class="cls-1" d="M224.03,316.49c.65.33.65.67,0,1v-1Z"/><path class="cls-1" d="M180.03,33.49c.65.33.65.67,0,1v-1Z"/><path class="cls-1" d="M231.02,317.51c.55.64,2.01,1.3,1.02,1.96-.48-.59-2.01-1.26-1.02-1.96Z"/><path class="cls-1" d="M211.03,318.49c.65.33.65.67,0,1v-1Z"/><path class="cls-1" d="M198.03,319.49c.65.33.65.67,0,1v-1Z"/><path class="cls-1" d="M236.03,321.49c.65.33.65.67,0,1v-1Z"/><path d="M124.97,192.87c.71-1.54,1.09-3.07,1.85-4.49.97-1.81,6.92-10.23,9.21-6.89,4.29,6.26-2.25,33.81-14.09,28.1-4.1-3.29,1.34-13.04,3.03-16.72ZM133.53,184.5h-1.99v.98h1.99v-.98ZM133.03,199.49v1c.65-.33.65-.67,0-1ZM125.53,208.5h-1.99v.98h1.99v-.98Z"/><path d="M141.54,168.49c-.24-4.39,3.27-7.47,6.98-8.99,2.05,2.75-5.89,10.23-6.98,8.99Z"/><path d="M141.53,221.49c2.79,7.22-.78,24.98-7.64,28.92-1.14.65-5.76,1.06-6.4.57-3.86-2.95,1.35-15.31,3.18-18.86,1.05-2.05,7.66-13.4,10.86-10.63ZM138.03,223.49v1c.65-.33.65-.67,0-1ZM136.52,230.49v-1.99h-.98v1.99h.98ZM131.03,237.49v1c.65-.33.65-.67,0-1Z"/><path d="M154.53,200.5c1.1,1.1-4.91,9.93-7.99,8.99.7-4.07,3.44-8.72,7.99-8.99ZM150.03,204.49v1c.65-.33.65-.67,0-1Z"/><path d="M156.78,223.24c-4.8-4.71,6.33-14.01,10.85-8.34,4.88,6.11-7.31,11.82-10.85,8.34ZM164.52,216.49v-1.99h-.98v1.99h.98Z"/><path d="M158.24,170.71c3.28-.76,8.56-.92,9.29,3.26-5.48,3.32-8.25,12.66-15.99,10.03l-1.81-2.14c.39-4.28,4.21-10.15,8.51-11.15Z"/><path d="M208.54,185.49c.21-2.84,2.79-7.26,5.5-7.99,1.05-.29-.31,2.48,1.49,1.99l-1-2.99c1.76-.15,4.22-2.03,5.55-.05,3.46,5.15-7.9,8.71-11.54,9.04Z"/><rect class="cls-1" x="123.54" y="208.5" width="1.99" height=".98"/><rect class="cls-1" x="131.54" y="184.5" width="1.99" height=".98"/><path class="cls-1" d="M133.03,199.49c.65.33.65.67,0,1v-1Z"/><rect class="cls-1" x="135.54" y="228.5" width=".98" height="1.99"/><path class="cls-1" d="M138.03,223.49c.65.33.65.67,0,1v-1Z"/><path class="cls-1" d="M131.03,237.49c.65.33.65.67,0,1v-1Z"/><path class="cls-1" d="M150.03,204.49c.65.33.65.67,0,1v-1Z"/><rect class="cls-1" x="163.54" y="214.5" width=".98" height="1.99"/></svg>
