<?xml version="1.0" encoding="UTF-8"?>
<svg xmlns="http://www.w3.org/2000/svg" viewBox="0 0 1920 200" style="background: undefined">
  <defs>
    <!-- Particle Shape Definitions -->
    <g id="particle-dot">
      <circle cx="0" cy="1.25" r="1.25" fill="currentColor"/>
    </g>

    <g id="particle-diamond">
      <path d="M0,2.5 L1.615,1.923 L3,1.25 L1.615,0.577 L0,0 L0,1.25 Z" fill="currentColor"/>
    </g>

    <g id="particle-triangle">
      <path d="M1.25,1.5 L1.923,0.808 L2.5,0 L1.25,0 L0,0 L0.577,0.808 Z" fill="currentColor"/>
    </g>

    <g id="particle-wedge">
      <path d="M1.619,2 C1.81,2 2,1.5 2,1 L2,0 L0.952,0 L0,0 L0.571,1 C0.857,1.5 1.333,2 1.619,2 Z" fill="currentColor"/>
    </g>

    <g id="particle-crescent">
      <path d="M1.196,1.745 C1.957,1.312 2.5,0.773 2.5,0.449 C2.5,-0.414 1.522,0.017 0.761,1.312 L0,2.5 L1.196,1.745 Z" fill="currentColor"/>
    </g>

    <g id="particle-arc">
      <path d="M2,3 L1.4,1.539 C0.7,-0.215 0,-0.507 0,0.857 C0,1.441 0.4,2.123 1,2.416 L2,3 Z" fill="currentColor"/>
    </g>
  </defs>

  <g id="texture-stardust">
    <!-- dot particles: 20 -->
    <use href="#particle-dot" transform="scale(1.53, 2.00) rotate(146, 750, 138) translate(750, 138)" color="oklch(0.21 0 0)" opacity="0.75"/>
    <use href="#particle-dot" transform="scale(1.50, 1.41) rotate(198, 1307, 76) translate(1307, 76)" color="oklch(0.16 0 0)" opacity="0.79"/>
    <use href="#particle-dot" transform="scale(1.83, 1.71) rotate(159, 232, 115) translate(232, 115)" color="oklch(0.17 0 0)" opacity="0.75"/>
    <use href="#particle-dot" transform="scale(1.29, 1.56) rotate(321, 1001, 132) translate(1001, 132)" color="oklch(0.14 0 0)" opacity="0.93"/>
    <use href="#particle-dot" transform="scale(1.57, 1.55) rotate(302, 1584, 90) translate(1584, 90)" color="oklch(0.23 0 0)" opacity="0.75"/>
    <use href="#particle-dot" transform="scale(1.82, 1.48) rotate(354, 729, 146) translate(729, 146)" color="oklch(0.22 0 0)" opacity="0.84"/>
    <use href="#particle-dot" transform="scale(1.84, 1.98) rotate(291, 937, 117) translate(937, 117)" color="oklch(0.17 0 0)" opacity="0.95"/>
    <use href="#particle-dot" transform="scale(1.72, 1.33) rotate(227, 1513, 74) translate(1513, 74)" color="oklch(0.17 0 0)" opacity="0.73"/>
    <use href="#particle-dot" transform="scale(1.49, 1.92) rotate(176, 698, 54) translate(698, 54)" color="oklch(0.14 0 0)" opacity="0.85"/>
    <use href="#particle-dot" transform="scale(1.74, 1.91) rotate(11, 238, 106) translate(238, 106)" color="oklch(0.19 0 0)" opacity="0.94"/>
    <use href="#particle-dot" transform="scale(1.56, 1.27) rotate(16, 453, 141) translate(453, 141)" color="oklch(0.16 0 0)" opacity="0.92"/>
    <use href="#particle-dot" transform="scale(1.42, 1.35) rotate(349, 925, 105) translate(925, 105)" color="oklch(0.18 0 0)" opacity="0.75"/>
    <use href="#particle-dot" transform="scale(1.25, 1.79) rotate(184, 1072, 88) translate(1072, 88)" color="oklch(0.18 0 0)" opacity="0.85"/>
    <use href="#particle-dot" transform="scale(1.82, 1.56) rotate(39, 97, 127) translate(97, 127)" color="oklch(0.16 0 0)" opacity="0.84"/>
    <use href="#particle-dot" transform="scale(1.67, 1.87) rotate(97, 1111, 116) translate(1111, 116)" color="oklch(0.19 0 0)" opacity="0.83"/>
    <use href="#particle-dot" transform="scale(1.27, 1.67) rotate(245, 505, 71) translate(505, 71)" color="oklch(0.24 0 0)" opacity="0.82"/>
    <use href="#particle-dot" transform="scale(1.76, 1.30) rotate(19, 738, 116) translate(738, 116)" color="oklch(0.18 0 0)" opacity="0.83"/>
    <use href="#particle-dot" transform="scale(1.31, 1.60) rotate(13, 566, 83) translate(566, 83)" color="oklch(0.23 0 0)" opacity="0.90"/>
    <use href="#particle-dot" transform="scale(1.47, 1.49) rotate(15, 356, 120) translate(356, 120)" color="oklch(0.19 0 0)" opacity="0.82"/>
    <use href="#particle-dot" transform="scale(1.63, 1.58) rotate(265, 1209, 140) translate(1209, 140)" color="oklch(0.20 0 0)" opacity="0.89"/>

    <!-- diamond particles: 30 -->
    <use href="#particle-diamond" transform="scale(1.67, 1.27) rotate(331, 372, 51) translate(372, 51)" color="oklch(0.21 0 0)" opacity="0.79"/>
    <use href="#particle-diamond" transform="scale(1.69, 1.91) rotate(283, 469, 136) translate(469, 136)" color="oklch(0.18 0 0)" opacity="0.83"/>
    <use href="#particle-diamond" transform="scale(1.94, 1.44) rotate(265, 1644, 66) translate(1644, 66)" color="oklch(0.25 0 0)" opacity="0.79"/>
    <use href="#particle-diamond" transform="scale(1.70, 1.29) rotate(210, 1749, 144) translate(1749, 144)" color="oklch(0.22 0 0)" opacity="0.80"/>
    <use href="#particle-diamond" transform="scale(1.86, 1.26) rotate(330, 1366, 142) translate(1366, 142)" color="oklch(0.21 0 0)" opacity="0.90"/>
    <use href="#particle-diamond" transform="scale(1.59, 1.45) rotate(212, 1537, 92) translate(1537, 92)" color="oklch(0.15 0 0)" opacity="0.70"/>
    <use href="#particle-diamond" transform="scale(1.26, 1.98) rotate(308, 545, 70) translate(545, 70)" color="oklch(0.15 0 0)" opacity="0.77"/>
    <use href="#particle-diamond" transform="scale(1.42, 1.42) rotate(97, 1176, 133) translate(1176, 133)" color="oklch(0.21 0 0)" opacity="0.78"/>
    <use href="#particle-diamond" transform="scale(1.92, 1.28) rotate(39, 416, 91) translate(416, 91)" color="oklch(0.23 0 0)" opacity="0.78"/>
    <use href="#particle-diamond" transform="scale(1.58, 1.77) rotate(316, 392, 146) translate(392, 146)" color="oklch(0.24 0 0)" opacity="0.88"/>
    <use href="#particle-diamond" transform="scale(1.60, 1.36) rotate(64, 577, 111) translate(577, 111)" color="oklch(0.18 0 0)" opacity="0.94"/>
    <use href="#particle-diamond" transform="scale(1.60, 1.78) rotate(145, 1464, 139) translate(1464, 139)" color="oklch(0.17 0 0)" opacity="0.76"/>
    <use href="#particle-diamond" transform="scale(1.58, 1.41) rotate(316, 1011, 130) translate(1011, 130)" color="oklch(0.23 0 0)" opacity="0.77"/>
    <use href="#particle-diamond" transform="scale(1.40, 1.52) rotate(62, 1698, 140) translate(1698, 140)" color="oklch(0.24 0 0)" opacity="0.84"/>
    <use href="#particle-diamond" transform="scale(1.48, 1.37) rotate(204, 142, 103) translate(142, 103)" color="oklch(0.17 0 0)" opacity="0.93"/>
    <use href="#particle-diamond" transform="scale(1.81, 1.41) rotate(265, 318, 121) translate(318, 121)" color="oklch(0.25 0 0)" opacity="0.71"/>
    <use href="#particle-diamond" transform="scale(1.32, 1.45) rotate(350, 452, 116) translate(452, 116)" color="oklch(0.15 0 0)" opacity="0.76"/>
    <use href="#particle-diamond" transform="scale(1.42, 1.79) rotate(178, 1809, 131) translate(1809, 131)" color="oklch(0.20 0 0)" opacity="0.84"/>
    <use href="#particle-diamond" transform="scale(1.84, 1.27) rotate(223, 889, 55) translate(889, 55)" color="oklch(0.17 0 0)" opacity="0.92"/>
    <use href="#particle-diamond" transform="scale(1.95, 1.72) rotate(285, 1541, 127) translate(1541, 127)" color="oklch(0.24 0 0)" opacity="0.72"/>
    <use href="#particle-diamond" transform="scale(1.69, 1.71) rotate(28, 1003, 86) translate(1003, 86)" color="oklch(0.23 0 0)" opacity="0.74"/>
    <use href="#particle-diamond" transform="scale(1.52, 1.72) rotate(39, 1793, 82) translate(1793, 82)" color="oklch(0.21 0 0)" opacity="0.92"/>
    <use href="#particle-diamond" transform="scale(1.78, 1.87) rotate(222, 1314, 62) translate(1314, 62)" color="oklch(0.19 0 0)" opacity="0.78"/>
    <use href="#particle-diamond" transform="scale(1.67, 1.81) rotate(128, 725, 124) translate(725, 124)" color="oklch(0.25 0 0)" opacity="0.79"/>
    <use href="#particle-diamond" transform="scale(1.33, 1.72) rotate(280, 701, 132) translate(701, 132)" color="oklch(0.22 0 0)" opacity="0.80"/>
    <use href="#particle-diamond" transform="scale(1.28, 1.77) rotate(211, 262, 141) translate(262, 141)" color="oklch(0.21 0 0)" opacity="0.76"/>
    <use href="#particle-diamond" transform="scale(1.83, 1.96) rotate(333, 1189, 146) translate(1189, 146)" color="oklch(0.24 0 0)" opacity="0.83"/>
    <use href="#particle-diamond" transform="scale(1.74, 1.70) rotate(353, 395, 69) translate(395, 69)" color="oklch(0.22 0 0)" opacity="0.89"/>
    <use href="#particle-diamond" transform="scale(1.75, 1.78) rotate(64, 981, 58) translate(981, 58)" color="oklch(0.18 0 0)" opacity="0.77"/>
    <use href="#particle-diamond" transform="scale(1.65, 1.80) rotate(354, 768, 88) translate(768, 88)" color="oklch(0.20 0 0)" opacity="0.78"/>

    <!-- triangle particles: 25 -->
    <use href="#particle-triangle" transform="scale(2.00, 1.40) rotate(284, 1617, 72) translate(1617, 72)" color="oklch(0.18 0 0)" opacity="0.92"/>
    <use href="#particle-triangle" transform="scale(1.58, 1.83) rotate(272, 1510, 75) translate(1510, 75)" color="oklch(0.16 0 0)" opacity="0.81"/>
    <use href="#particle-triangle" transform="scale(1.52, 1.48) rotate(318, 1580, 144) translate(1580, 144)" color="oklch(0.19 0 0)" opacity="0.76"/>
    <use href="#particle-triangle" transform="scale(1.56, 1.59) rotate(336, 352, 143) translate(352, 143)" color="oklch(0.21 0 0)" opacity="0.82"/>
    <use href="#particle-triangle" transform="scale(1.73, 1.31) rotate(58, 910, 123) translate(910, 123)" color="oklch(0.19 0 0)" opacity="0.89"/>
    <use href="#particle-triangle" transform="scale(1.88, 1.65) rotate(305, 336, 79) translate(336, 79)" color="oklch(0.18 0 0)" opacity="0.78"/>
    <use href="#particle-triangle" transform="scale(1.81, 1.60) rotate(135, 458, 133) translate(458, 133)" color="oklch(0.25 0 0)" opacity="0.92"/>
    <use href="#particle-triangle" transform="scale(1.91, 1.61) rotate(209, 393, 109) translate(393, 109)" color="oklch(0.17 0 0)" opacity="0.73"/>
    <use href="#particle-triangle" transform="scale(1.92, 1.82) rotate(241, 979, 121) translate(979, 121)" color="oklch(0.16 0 0)" opacity="0.85"/>
    <use href="#particle-triangle" transform="scale(1.30, 1.67) rotate(319, 201, 110) translate(201, 110)" color="oklch(0.18 0 0)" opacity="0.71"/>
    <use href="#particle-triangle" transform="scale(1.71, 1.70) rotate(56, 1097, 57) translate(1097, 57)" color="oklch(0.19 0 0)" opacity="0.88"/>
    <use href="#particle-triangle" transform="scale(1.65, 1.88) rotate(35, 409, 64) translate(409, 64)" color="oklch(0.20 0 0)" opacity="0.80"/>
    <use href="#particle-triangle" transform="scale(1.28, 1.77) rotate(235, 1268, 69) translate(1268, 69)" color="oklch(0.18 0 0)" opacity="0.81"/>
    <use href="#particle-triangle" transform="scale(1.34, 1.25) rotate(262, 263, 71) translate(263, 71)" color="oklch(0.20 0 0)" opacity="0.92"/>
    <use href="#particle-triangle" transform="scale(1.74, 1.62) rotate(223, 60, 76) translate(60, 76)" color="oklch(0.20 0 0)" opacity="0.85"/>
    <use href="#particle-triangle" transform="scale(1.43, 1.44) rotate(143, 372, 123) translate(372, 123)" color="oklch(0.24 0 0)" opacity="0.87"/>
    <use href="#particle-triangle" transform="scale(1.76, 1.86) rotate(0, 1626, 89) translate(1626, 89)" color="oklch(0.21 0 0)" opacity="0.94"/>
    <use href="#particle-triangle" transform="scale(1.97, 1.56) rotate(285, 257, 106) translate(257, 106)" color="oklch(0.22 0 0)" opacity="0.85"/>
    <use href="#particle-triangle" transform="scale(1.92, 1.83) rotate(202, 895, 120) translate(895, 120)" color="oklch(0.15 0 0)" opacity="0.84"/>
    <use href="#particle-triangle" transform="scale(1.95, 1.61) rotate(139, 1001, 97) translate(1001, 97)" color="oklch(0.24 0 0)" opacity="0.90"/>
    <use href="#particle-triangle" transform="scale(1.96, 1.50) rotate(337, 1439, 147) translate(1439, 147)" color="oklch(0.20 0 0)" opacity="0.80"/>
    <use href="#particle-triangle" transform="scale(1.93, 1.48) rotate(85, 1354, 99) translate(1354, 99)" color="oklch(0.25 0 0)" opacity="0.76"/>
    <use href="#particle-triangle" transform="scale(1.39, 1.55) rotate(252, 288, 136) translate(288, 136)" color="oklch(0.24 0 0)" opacity="0.82"/>
    <use href="#particle-triangle" transform="scale(1.84, 1.90) rotate(321, 98, 55) translate(98, 55)" color="oklch(0.20 0 0)" opacity="0.79"/>
    <use href="#particle-triangle" transform="scale(1.36, 1.59) rotate(76, 913, 94) translate(913, 94)" color="oklch(0.21 0 0)" opacity="0.70"/>

    <!-- wedge particles: 44 -->
    <use href="#particle-wedge" transform="scale(1.94, 1.97) rotate(107, 277, 61) translate(277, 61)" color="oklch(0.24 0 0)" opacity="0.80"/>
    <use href="#particle-wedge" transform="scale(1.36, 1.41) rotate(320, 286, 77) translate(286, 77)" color="oklch(0.14 0 0)" opacity="0.84"/>
    <use href="#particle-wedge" transform="scale(1.75, 1.91) rotate(38, 503, 101) translate(503, 101)" color="oklch(0.19 0 0)" opacity="0.89"/>
    <use href="#particle-wedge" transform="scale(1.29, 1.98) rotate(108, 325, 149) translate(325, 149)" color="oklch(0.16 0 0)" opacity="0.83"/>
    <use href="#particle-wedge" transform="scale(1.79, 1.76) rotate(240, 317, 91) translate(317, 91)" color="oklch(0.23 0 0)" opacity="0.71"/>
    <use href="#particle-wedge" transform="scale(1.85, 1.70) rotate(136, 723, 58) translate(723, 58)" color="oklch(0.16 0 0)" opacity="0.81"/>
    <use href="#particle-wedge" transform="scale(1.93, 1.61) rotate(134, 794, 145) translate(794, 145)" color="oklch(0.21 0 0)" opacity="0.75"/>
    <use href="#particle-wedge" transform="scale(1.64, 1.76) rotate(28, 1839, 86) translate(1839, 86)" color="oklch(0.14 0 0)" opacity="0.87"/>
    <use href="#particle-wedge" transform="scale(1.99, 1.48) rotate(80, 131, 77) translate(131, 77)" color="oklch(0.17 0 0)" opacity="0.73"/>
    <use href="#particle-wedge" transform="scale(1.66, 1.45) rotate(116, 1121, 81) translate(1121, 81)" color="oklch(0.17 0 0)" opacity="0.89"/>
    <use href="#particle-wedge" transform="scale(1.32, 1.28) rotate(246, 284, 144) translate(284, 144)" color="oklch(0.19 0 0)" opacity="0.80"/>
    <use href="#particle-wedge" transform="scale(1.38, 1.80) rotate(145, 684, 94) translate(684, 94)" color="oklch(0.24 0 0)" opacity="0.71"/>
    <use href="#particle-wedge" transform="scale(1.77, 1.56) rotate(291, 237, 72) translate(237, 72)" color="oklch(0.21 0 0)" opacity="0.70"/>
    <use href="#particle-wedge" transform="scale(1.68, 1.76) rotate(274, 926, 109) translate(926, 109)" color="oklch(0.21 0 0)" opacity="0.77"/>
    <use href="#particle-wedge" transform="scale(1.39, 1.29) rotate(293, 73, 70) translate(73, 70)" color="oklch(0.19 0 0)" opacity="0.90"/>
    <use href="#particle-wedge" transform="scale(1.56, 1.35) rotate(193, 1790, 52) translate(1790, 52)" color="oklch(0.20 0 0)" opacity="0.86"/>
    <use href="#particle-wedge" transform="scale(1.36, 1.76) rotate(98, 1244, 69) translate(1244, 69)" color="oklch(0.16 0 0)" opacity="0.81"/>
    <use href="#particle-wedge" transform="scale(1.59, 1.27) rotate(316, 688, 133) translate(688, 133)" color="oklch(0.16 0 0)" opacity="0.71"/>
    <use href="#particle-wedge" transform="scale(1.88, 1.84) rotate(219, 1337, 65) translate(1337, 65)" color="oklch(0.16 0 0)" opacity="0.81"/>
    <use href="#particle-wedge" transform="scale(1.42, 1.77) rotate(299, 1661, 57) translate(1661, 57)" color="oklch(0.16 0 0)" opacity="0.93"/>
    <use href="#particle-wedge" transform="scale(1.93, 1.67) rotate(24, 467, 70) translate(467, 70)" color="oklch(0.20 0 0)" opacity="0.93"/>
    <use href="#particle-wedge" transform="scale(1.78, 1.29) rotate(88, 99, 57) translate(99, 57)" color="oklch(0.17 0 0)" opacity="0.75"/>
    <use href="#particle-wedge" transform="scale(1.87, 1.37) rotate(156, 1343, 109) translate(1343, 109)" color="oklch(0.16 0 0)" opacity="0.91"/>
    <use href="#particle-wedge" transform="scale(1.29, 1.68) rotate(116, 1525, 70) translate(1525, 70)" color="oklch(0.20 0 0)" opacity="0.73"/>
    <use href="#particle-wedge" transform="scale(1.48, 1.58) rotate(322, 552, 100) translate(552, 100)" color="oklch(0.14 0 0)" opacity="0.88"/>
    <use href="#particle-wedge" transform="scale(1.77, 1.67) rotate(37, 999, 87) translate(999, 87)" color="oklch(0.22 0 0)" opacity="0.85"/>
    <use href="#particle-wedge" transform="scale(1.26, 1.59) rotate(329, 1656, 134) translate(1656, 134)" color="oklch(0.24 0 0)" opacity="0.85"/>
    <use href="#particle-wedge" transform="scale(1.74, 1.85) rotate(218, 1095, 134) translate(1095, 134)" color="oklch(0.22 0 0)" opacity="0.79"/>
    <use href="#particle-wedge" transform="scale(1.46, 1.68) rotate(47, 903, 145) translate(903, 145)" color="oklch(0.22 0 0)" opacity="0.76"/>
    <use href="#particle-wedge" transform="scale(1.46, 1.56) rotate(337, 1381, 117) translate(1381, 117)" color="oklch(0.14 0 0)" opacity="0.93"/>
    <use href="#particle-wedge" transform="scale(1.97, 1.51) rotate(55, 238, 145) translate(238, 145)" color="oklch(0.16 0 0)" opacity="0.92"/>
    <use href="#particle-wedge" transform="scale(1.30, 1.71) rotate(225, 1645, 50) translate(1645, 50)" color="oklch(0.25 0 0)" opacity="0.87"/>
    <use href="#particle-wedge" transform="scale(1.60, 1.48) rotate(9, 1193, 117) translate(1193, 117)" color="oklch(0.20 0 0)" opacity="0.79"/>
    <use href="#particle-wedge" transform="scale(1.51, 1.50) rotate(58, 965, 88) translate(965, 88)" color="oklch(0.19 0 0)" opacity="0.78"/>
    <use href="#particle-wedge" transform="scale(1.87, 1.33) rotate(140, 1181, 62) translate(1181, 62)" color="oklch(0.24 0 0)" opacity="0.89"/>
    <use href="#particle-wedge" transform="scale(1.89, 1.54) rotate(0, 298, 79) translate(298, 79)" color="oklch(0.19 0 0)" opacity="0.76"/>
    <use href="#particle-wedge" transform="scale(1.90, 1.99) rotate(359, 1248, 96) translate(1248, 96)" color="oklch(0.15 0 0)" opacity="0.73"/>
    <use href="#particle-wedge" transform="scale(1.39, 1.62) rotate(148, 994, 133) translate(994, 133)" color="oklch(0.18 0 0)" opacity="0.88"/>
    <use href="#particle-wedge" transform="scale(1.89, 1.52) rotate(348, 1864, 70) translate(1864, 70)" color="oklch(0.17 0 0)" opacity="0.88"/>
    <use href="#particle-wedge" transform="scale(1.90, 1.76) rotate(196, 1177, 51) translate(1177, 51)" color="oklch(0.15 0 0)" opacity="0.84"/>
    <use href="#particle-wedge" transform="scale(1.94, 1.97) rotate(320, 400, 134) translate(400, 134)" color="oklch(0.24 0 0)" opacity="0.89"/>
    <use href="#particle-wedge" transform="scale(1.45, 1.43) rotate(19, 1272, 115) translate(1272, 115)" color="oklch(0.17 0 0)" opacity="0.74"/>
    <use href="#particle-wedge" transform="scale(1.39, 1.91) rotate(107, 385, 58) translate(385, 58)" color="oklch(0.18 0 0)" opacity="0.82"/>
    <use href="#particle-wedge" transform="scale(1.86, 1.61) rotate(88, 1350, 117) translate(1350, 117)" color="oklch(0.19 0 0)" opacity="0.85"/>

    <!-- crescent particles: 20 -->
    <use href="#particle-crescent" transform="scale(1.64, 1.52) rotate(12, 1414, 71) translate(1414, 71)" color="oklch(0.22 0 0)" opacity="0.89"/>
    <use href="#particle-crescent" transform="scale(1.74, 1.41) rotate(340, 56, 110) translate(56, 110)" color="oklch(0.20 0 0)" opacity="0.91"/>
    <use href="#particle-crescent" transform="scale(1.39, 1.69) rotate(310, 1694, 77) translate(1694, 77)" color="oklch(0.18 0 0)" opacity="0.94"/>
    <use href="#particle-crescent" transform="scale(1.97, 1.53) rotate(62, 1573, 147) translate(1573, 147)" color="oklch(0.19 0 0)" opacity="0.92"/>
    <use href="#particle-crescent" transform="scale(1.90, 1.44) rotate(107, 88, 58) translate(88, 58)" color="oklch(0.15 0 0)" opacity="0.74"/>
    <use href="#particle-crescent" transform="scale(1.59, 1.34) rotate(56, 1263, 71) translate(1263, 71)" color="oklch(0.22 0 0)" opacity="0.76"/>
    <use href="#particle-crescent" transform="scale(1.49, 1.85) rotate(245, 1664, 91) translate(1664, 91)" color="oklch(0.14 0 0)" opacity="0.77"/>
    <use href="#particle-crescent" transform="scale(1.84, 1.40) rotate(160, 949, 122) translate(949, 122)" color="oklch(0.20 0 0)" opacity="0.71"/>
    <use href="#particle-crescent" transform="scale(1.85, 1.77) rotate(325, 1810, 57) translate(1810, 57)" color="oklch(0.19 0 0)" opacity="0.77"/>
    <use href="#particle-crescent" transform="scale(1.26, 1.45) rotate(179, 622, 85) translate(622, 85)" color="oklch(0.19 0 0)" opacity="0.70"/>
    <use href="#particle-crescent" transform="scale(1.55, 1.39) rotate(349, 940, 89) translate(940, 89)" color="oklch(0.15 0 0)" opacity="0.92"/>
    <use href="#particle-crescent" transform="scale(1.48, 1.84) rotate(103, 1149, 80) translate(1149, 80)" color="oklch(0.17 0 0)" opacity="0.90"/>
    <use href="#particle-crescent" transform="scale(1.90, 1.41) rotate(187, 538, 96) translate(538, 96)" color="oklch(0.17 0 0)" opacity="0.72"/>
    <use href="#particle-crescent" transform="scale(1.37, 1.94) rotate(128, 1552, 134) translate(1552, 134)" color="oklch(0.15 0 0)" opacity="0.95"/>
    <use href="#particle-crescent" transform="scale(1.52, 1.76) rotate(221, 1236, 86) translate(1236, 86)" color="oklch(0.17 0 0)" opacity="0.78"/>
    <use href="#particle-crescent" transform="scale(1.59, 1.94) rotate(311, 1600, 57) translate(1600, 57)" color="oklch(0.15 0 0)" opacity="0.72"/>
    <use href="#particle-crescent" transform="scale(1.93, 1.38) rotate(256, 982, 88) translate(982, 88)" color="oklch(0.23 0 0)" opacity="0.75"/>
    <use href="#particle-crescent" transform="scale(1.85, 1.55) rotate(125, 1554, 55) translate(1554, 55)" color="oklch(0.15 0 0)" opacity="0.71"/>
    <use href="#particle-crescent" transform="scale(1.42, 1.48) rotate(158, 1746, 149) translate(1746, 149)" color="oklch(0.19 0 0)" opacity="0.89"/>
    <use href="#particle-crescent" transform="scale(1.87, 1.57) rotate(279, 1341, 64) translate(1341, 64)" color="oklch(0.23 0 0)" opacity="0.80"/>

    <!-- arc particles: 33 -->
    <use href="#particle-arc" transform="scale(1.29, 1.95) rotate(198, 1485, 95) translate(1485, 95)" color="oklch(0.24 0 0)" opacity="0.86"/>
    <use href="#particle-arc" transform="scale(1.97, 1.48) rotate(345, 258, 50) translate(258, 50)" color="oklch(0.20 0 0)" opacity="0.77"/>
    <use href="#particle-arc" transform="scale(1.75, 1.98) rotate(333, 270, 85) translate(270, 85)" color="oklch(0.18 0 0)" opacity="0.72"/>
    <use href="#particle-arc" transform="scale(1.41, 1.98) rotate(76, 1288, 126) translate(1288, 126)" color="oklch(0.15 0 0)" opacity="0.89"/>
    <use href="#particle-arc" transform="scale(1.45, 1.87) rotate(166, 368, 132) translate(368, 132)" color="oklch(0.22 0 0)" opacity="0.72"/>
    <use href="#particle-arc" transform="scale(1.49, 1.61) rotate(179, 1324, 105) translate(1324, 105)" color="oklch(0.24 0 0)" opacity="0.78"/>
    <use href="#particle-arc" transform="scale(1.28, 1.53) rotate(338, 1153, 74) translate(1153, 74)" color="oklch(0.23 0 0)" opacity="0.84"/>
    <use href="#particle-arc" transform="scale(1.93, 1.74) rotate(360, 1693, 70) translate(1693, 70)" color="oklch(0.25 0 0)" opacity="0.92"/>
    <use href="#particle-arc" transform="scale(1.58, 1.42) rotate(281, 228, 146) translate(228, 146)" color="oklch(0.23 0 0)" opacity="0.85"/>
    <use href="#particle-arc" transform="scale(1.96, 1.34) rotate(272, 1185, 63) translate(1185, 63)" color="oklch(0.20 0 0)" opacity="0.90"/>
    <use href="#particle-arc" transform="scale(2.00, 1.82) rotate(97, 1499, 67) translate(1499, 67)" color="oklch(0.20 0 0)" opacity="0.73"/>
    <use href="#particle-arc" transform="scale(1.47, 1.88) rotate(298, 794, 68) translate(794, 68)" color="oklch(0.18 0 0)" opacity="0.88"/>
    <use href="#particle-arc" transform="scale(1.64, 1.35) rotate(241, 317, 115) translate(317, 115)" color="oklch(0.17 0 0)" opacity="0.93"/>
    <use href="#particle-arc" transform="scale(1.93, 1.31) rotate(239, 290, 116) translate(290, 116)" color="oklch(0.22 0 0)" opacity="0.94"/>
    <use href="#particle-arc" transform="scale(1.42, 1.39) rotate(353, 1426, 141) translate(1426, 141)" color="oklch(0.14 0 0)" opacity="0.86"/>
    <use href="#particle-arc" transform="scale(1.50, 1.56) rotate(83, 485, 59) translate(485, 59)" color="oklch(0.16 0 0)" opacity="0.93"/>
    <use href="#particle-arc" transform="scale(1.58, 1.90) rotate(72, 528, 129) translate(528, 129)" color="oklch(0.21 0 0)" opacity="0.87"/>
    <use href="#particle-arc" transform="scale(1.62, 1.44) rotate(295, 1051, 78) translate(1051, 78)" color="oklch(0.16 0 0)" opacity="0.88"/>
    <use href="#particle-arc" transform="scale(1.79, 1.65) rotate(90, 1187, 90) translate(1187, 90)" color="oklch(0.18 0 0)" opacity="0.72"/>
    <use href="#particle-arc" transform="scale(1.62, 1.81) rotate(233, 236, 116) translate(236, 116)" color="oklch(0.22 0 0)" opacity="0.84"/>
    <use href="#particle-arc" transform="scale(1.89, 1.72) rotate(96, 261, 103) translate(261, 103)" color="oklch(0.14 0 0)" opacity="0.77"/>
    <use href="#particle-arc" transform="scale(1.70, 1.86) rotate(96, 411, 122) translate(411, 122)" color="oklch(0.15 0 0)" opacity="0.84"/>
    <use href="#particle-arc" transform="scale(1.99, 1.39) rotate(245, 1083, 85) translate(1083, 85)" color="oklch(0.14 0 0)" opacity="0.86"/>
    <use href="#particle-arc" transform="scale(1.65, 1.55) rotate(205, 338, 91) translate(338, 91)" color="oklch(0.21 0 0)" opacity="0.78"/>
    <use href="#particle-arc" transform="scale(1.94, 1.74) rotate(81, 394, 104) translate(394, 104)" color="oklch(0.19 0 0)" opacity="0.77"/>
    <use href="#particle-arc" transform="scale(1.62, 1.47) rotate(5, 412, 118) translate(412, 118)" color="oklch(0.23 0 0)" opacity="0.88"/>
    <use href="#particle-arc" transform="scale(1.84, 1.85) rotate(43, 258, 72) translate(258, 72)" color="oklch(0.21 0 0)" opacity="0.92"/>
    <use href="#particle-arc" transform="scale(1.89, 1.67) rotate(177, 1284, 69) translate(1284, 69)" color="oklch(0.24 0 0)" opacity="0.80"/>
    <use href="#particle-arc" transform="scale(1.91, 1.33) rotate(72, 1026, 91) translate(1026, 91)" color="oklch(0.15 0 0)" opacity="0.95"/>
    <use href="#particle-arc" transform="scale(1.77, 1.55) rotate(57, 269, 96) translate(269, 96)" color="oklch(0.16 0 0)" opacity="0.82"/>
    <use href="#particle-arc" transform="scale(1.54, 1.67) rotate(185, 1716, 62) translate(1716, 62)" color="oklch(0.25 0 0)" opacity="0.86"/>
    <use href="#particle-arc" transform="scale(1.47, 1.92) rotate(304, 1111, 96) translate(1111, 96)" color="oklch(0.20 0 0)" opacity="0.88"/>
    <use href="#particle-arc" transform="scale(1.81, 1.53) rotate(255, 1846, 113) translate(1846, 113)" color="oklch(0.23 0 0)" opacity="0.95"/>
  </g>
</svg>